<svg width="20" height="20" viewBox="0 0 20 20" fill="none" xmlns="http://www.w3.org/2000/svg">
<circle cx="10" cy="10" r="10" fill="#F25822"/>
<path d="M11.7917 6.60517C11.7917 6.54439 11.7675 6.4861 11.7245 6.44312C11.6816 6.40015 11.6233 6.376 11.5625 6.376H10.4167C9.83968 6.34726 9.27477 6.54806 8.84537 6.93452C8.41597 7.32098 8.15698 7.86169 8.125 8.4385V9.676H6.97917C6.91839 9.676 6.8601 9.70015 6.81712 9.74312C6.77414 9.7861 6.75 9.84439 6.75 9.90517V11.0968C6.75 11.1576 6.77414 11.2159 6.81712 11.2589C6.8601 11.3019 6.91839 11.326 6.97917 11.326H8.125V14.3968C8.125 14.4576 8.14914 14.5159 8.19212 14.5589C8.2351 14.6019 8.29339 14.626 8.35417 14.626H9.72917C9.78994 14.626 9.84823 14.6019 9.89121 14.5589C9.93419 14.5159 9.95833 14.4576 9.95833 14.3968V11.326H11.1592C11.2101 11.3267 11.2599 11.3105 11.3006 11.2797C11.3412 11.249 11.3705 11.2056 11.3837 11.1564L11.7137 9.96475C11.7229 9.93089 11.7241 9.89539 11.7173 9.86098C11.7106 9.82657 11.696 9.79417 11.6748 9.76628C11.6535 9.73839 11.6261 9.71574 11.5947 9.70009C11.5634 9.68444 11.5288 9.6762 11.4937 9.676H9.95833V8.4385C9.96973 8.32505 10.023 8.21993 10.1078 8.14365C10.1925 8.06738 10.3026 8.02543 10.4167 8.026H11.5625C11.6233 8.026 11.6816 8.00186 11.7245 7.95888C11.7675 7.9159 11.7917 7.85761 11.7917 7.79683V6.60517Z" fill="white"/>
</svg>
