<svg width="11" height="11" viewBox="0 0 11 11" fill="none" xmlns="http://www.w3.org/2000/svg">
<path d="M8.02084 6.41679C7.88666 6.88356 7.62073 7.30174 7.25492 7.62122C6.88911 7.9407 6.43893 8.14791 5.95834 8.21804C5.58252 8.27256 5.19956 8.25058 4.83245 8.15342C4.46533 8.05626 4.12164 7.88592 3.82199 7.65262C3.52234 7.41933 3.27293 7.12789 3.08872 6.7958C2.90451 6.46372 2.7893 6.09784 2.75001 5.72012C2.71958 5.34092 2.76815 4.95953 2.89265 4.60006C3.01716 4.2406 3.21489 3.91087 3.47335 3.63173C3.73181 3.3526 4.04538 3.13012 4.39422 2.97837C4.74306 2.82662 5.11959 2.7489 5.50001 2.75012C5.85648 2.75062 6.20959 2.81906 6.54043 2.95179C6.59252 2.97517 6.65147 2.97827 6.70573 2.96047C6.75999 2.94266 6.80565 2.90524 6.83376 2.85554L7.49376 1.64095C7.50797 1.61298 7.51651 1.58247 7.5189 1.55119C7.52129 1.5199 7.51748 1.48845 7.50768 1.45864C7.49789 1.42884 7.4823 1.40125 7.46183 1.37748C7.44135 1.35371 7.41638 1.33422 7.38835 1.32012C6.67963 0.999246 5.90091 0.864051 5.12551 0.927267C4.35012 0.990484 3.60357 1.25003 2.95619 1.68146C2.30881 2.1129 1.78191 2.70202 1.4251 3.39334C1.06829 4.08465 0.893323 4.85542 0.916678 5.63304C0.961845 6.78799 1.4366 7.88447 2.24794 8.70768C3.05929 9.53089 4.14875 10.0215 5.30293 10.0835C6.51198 10.1371 7.69316 9.71031 8.58874 8.89631C9.48432 8.0823 10.0216 6.94711 10.0833 5.73845V4.82179C10.0822 4.76137 10.0577 4.70376 10.0149 4.66104C9.9722 4.61831 9.91459 4.59379 9.85418 4.59262H5.72918C5.6684 4.59262 5.61011 4.61676 5.56713 4.65974C5.52416 4.70272 5.50001 4.76101 5.50001 4.82179V6.19679C5.50001 6.25757 5.52416 6.31585 5.56713 6.35883C5.61011 6.40181 5.6684 6.42595 5.72918 6.42595H8.02084" fill="#AAAAAA"/>
</svg>
