<svg width="12" height="11" viewBox="0 0 12 11" fill="none" xmlns="http://www.w3.org/2000/svg">
<path d="M6.00007 10.2499C5.9233 10.2503 5.84719 10.2356 5.77612 10.2066C5.70505 10.1776 5.64041 10.1348 5.5859 10.0807L1.0534 5.54239C0.484862 4.96791 0.165955 4.1923 0.165955 3.38405C0.165955 2.57581 0.484862 1.8002 1.0534 1.22572C1.62639 0.654352 2.40255 0.333496 3.21173 0.333496C4.02092 0.333496 4.79708 0.654352 5.37007 1.22572L6.00007 1.85572L6.63007 1.22572C7.20305 0.654352 7.97922 0.333496 8.7884 0.333496C9.59758 0.333496 10.3737 0.654352 10.9467 1.22572C11.5153 1.8002 11.8342 2.57581 11.8342 3.38405C11.8342 4.1923 11.5153 4.96791 10.9467 5.54239L6.41423 10.0807C6.35973 10.1348 6.29508 10.1776 6.22401 10.2066C6.15294 10.2356 6.07684 10.2503 6.00007 10.2499Z" fill="#F25822"/>
</svg>
