<svg width="11" height="11" viewBox="0 0 11 11" fill="none" xmlns="http://www.w3.org/2000/svg">
<path d="M6.94376 3.85011C6.59247 3.84891 6.2444 3.91698 5.91944 4.05044C5.59449 4.1839 5.29904 4.38012 5.05001 4.62788C4.80097 4.87564 4.60323 5.17008 4.4681 5.49434C4.33298 5.8186 4.26311 6.16632 4.26251 6.51761V9.21261C4.26251 9.32202 4.30597 9.42694 4.38333 9.5043C4.46069 9.58165 4.56561 9.62511 4.67501 9.62511H5.63751C5.74691 9.62511 5.85183 9.58165 5.92919 9.5043C6.00655 9.42694 6.05001 9.32202 6.05001 9.21261V6.51761C6.04992 6.39267 6.07616 6.26911 6.12703 6.155C6.17789 6.04088 6.25223 5.93876 6.34521 5.8553C6.43818 5.77183 6.5477 5.7089 6.66663 5.67061C6.78556 5.63231 6.91122 5.61951 7.03543 5.63303C7.25818 5.66109 7.46289 5.76992 7.61074 5.93888C7.75858 6.10785 7.83927 6.32519 7.83751 6.5497V9.21261C7.83751 9.32202 7.88097 9.42694 7.95833 9.5043C8.03569 9.58165 8.14061 9.62511 8.25001 9.62511H9.21251C9.32191 9.62511 9.42684 9.58165 9.50419 9.5043C9.58155 9.42694 9.62501 9.32202 9.62501 9.21261V6.51761C9.62441 6.16632 9.55455 5.8186 9.41942 5.49434C9.28429 5.17008 9.08656 4.87564 8.83752 4.62788C8.58848 4.38012 8.29303 4.1839 7.96808 4.05044C7.64313 3.91698 7.29505 3.84891 6.94376 3.85011Z" fill="#AAAAAA"/>
<path d="M3.025 4.26245H1.7875C1.55968 4.26245 1.375 4.44713 1.375 4.67495V9.21245C1.375 9.44027 1.55968 9.62495 1.7875 9.62495H3.025C3.25282 9.62495 3.4375 9.44027 3.4375 9.21245V4.67495C3.4375 4.44713 3.25282 4.26245 3.025 4.26245Z" fill="#AAAAAA"/>
<path d="M2.40625 3.4375C2.97579 3.4375 3.4375 2.97579 3.4375 2.40625C3.4375 1.83671 2.97579 1.375 2.40625 1.375C1.83671 1.375 1.375 1.83671 1.375 2.40625C1.375 2.97579 1.83671 3.4375 2.40625 3.4375Z" fill="#AAAAAA"/>
</svg>
