<svg width="14" height="14" viewBox="0 0 14 14" fill="none" xmlns="http://www.w3.org/2000/svg">
<path d="M6.99993 6.41667C7.46142 6.41667 7.91254 6.27982 8.29626 6.02343C8.67997 5.76704 8.97904 5.40262 9.15565 4.97626C9.33225 4.5499 9.37846 4.08075 9.28843 3.62812C9.1984 3.1755 8.97617 2.75974 8.64984 2.43342C8.32352 2.1071 7.90776 1.88487 7.45514 1.79484C7.00252 1.7048 6.53336 1.75101 6.107 1.92762C5.68064 2.10422 5.31622 2.40329 5.05983 2.787C4.80344 3.17072 4.6666 3.62184 4.6666 4.08333C4.6666 4.70217 4.91243 5.29567 5.35001 5.73325C5.7876 6.17084 6.38109 6.41667 6.99993 6.41667Z" fill="#F25822"/>
<path d="M10.4999 12.2499C10.6546 12.2499 10.803 12.1885 10.9124 12.0791C11.0218 11.9697 11.0833 11.8213 11.0833 11.6666C11.0833 10.5836 10.6531 9.54501 9.88728 8.77923C9.12151 8.01346 8.0829 7.58325 6.99993 7.58325C5.91696 7.58325 4.87835 8.01346 4.11258 8.77923C3.3468 9.54501 2.9166 10.5836 2.9166 11.6666C2.9166 11.8213 2.97805 11.9697 3.08745 12.0791C3.19685 12.1885 3.34522 12.2499 3.49993 12.2499H10.4999Z" fill="#F25822"/>
</svg>
