<svg width="11" height="11" viewBox="0 0 11 11" fill="none" xmlns="http://www.w3.org/2000/svg">
<path d="M3.70332 9.16662C4.38106 9.18929 5.05646 9.07588 5.68962 8.83309C6.32278 8.59029 6.90084 8.22304 7.38965 7.75303C7.87846 7.28302 8.26809 6.7198 8.53552 6.09665C8.80295 5.47349 8.94275 4.80305 8.94666 4.12495C9.25725 3.7406 9.48787 3.29804 9.62499 2.82328C9.63522 2.78577 9.6344 2.7461 9.62261 2.70905C9.61082 2.672 9.58858 2.63915 9.55855 2.61445C9.52852 2.58975 9.49199 2.57426 9.45337 2.56984C9.41474 2.56542 9.37565 2.57226 9.34082 2.58953C9.17833 2.66775 8.9954 2.69301 8.81779 2.66177C8.64019 2.63052 8.47686 2.54434 8.35082 2.41537C8.18992 2.23917 7.9953 2.09707 7.77848 1.99747C7.56165 1.89787 7.32704 1.84281 7.08855 1.83554C6.85006 1.82828 6.61253 1.86896 6.39005 1.95517C6.16756 2.04138 5.96465 2.17138 5.79332 2.33745C5.55875 2.56463 5.38693 2.84862 5.29457 3.16184C5.20221 3.47506 5.19245 3.80684 5.26624 4.12495C3.73082 4.21662 2.67666 3.48787 1.83332 2.4887C1.80799 2.46001 1.77484 2.43932 1.73794 2.42915C1.70104 2.41898 1.66198 2.41978 1.62552 2.43144C1.58907 2.44311 1.5568 2.46514 1.53266 2.49484C1.50852 2.52454 1.49354 2.56063 1.48957 2.5987C1.32891 3.48989 1.44481 4.40891 1.82169 5.23231C2.19857 6.05572 2.81839 6.74408 3.59791 7.20495C3.07524 7.80437 2.34125 8.17875 1.54916 8.24995C1.50672 8.25699 1.46755 8.27712 1.43712 8.30752C1.40669 8.33792 1.38653 8.37708 1.37945 8.41951C1.37238 8.46194 1.37875 8.50552 1.39768 8.54415C1.4166 8.58278 1.44713 8.61453 1.48499 8.63495C2.1741 8.97933 2.93297 9.1612 3.70332 9.16662Z" fill="#AAAAAA"/>
</svg>
